<?xml version="1.0" encoding="UTF-8" standalone="no"?>
<!-- Created with Inkscape (http://www.inkscape.org/) -->

<svg
   version="1.1"
   id="svg1"
   width="2048"
   height="288"
   viewBox="0 0 2048 288"
   sodipodi:docname="logo.svg"
   inkscape:version="1.4.2 (ebf0e940d0, 2025-05-08)"
   xmlns:inkscape="http://www.inkscape.org/namespaces/inkscape"
   xmlns:sodipodi="http://sodipodi.sourceforge.net/DTD/sodipodi-0.dtd"
   xmlns="http://www.w3.org/2000/svg"
   xmlns:svg="http://www.w3.org/2000/svg">
  <defs
     id="defs1" />
  <sodipodi:namedview
     id="namedview1"
     borderopacity="1"
     inkscape:showpageshadow="0"
     inkscape:pageopacity="0"
     inkscape:pagecheckerboard="0"
     inkscape:deskcolor="#505050"
     inkscape:zoom="0.84960937"
     inkscape:cx="705.61839"
     inkscape:cy="393.12184"
     inkscape:window-width="960"
     inkscape:window-height="910"
     inkscape:window-x="0"
     inkscape:window-y="0"
     inkscape:window-maximized="1"
     inkscape:current-layer="g1"
     pagecolor="#ffffff"
     bordercolor="#000000" />
  <g
     inkscape:groupmode="layer"
     inkscape:label="Image"
     id="g1">
    <path
       style="fill:#ffffff;fill-opacity:1"
       d="M 0,287.57758 0,287.15515 24.408703,228.82758 48.817405,170.5 76.301115,105 103.78482,39.5 112.1001,19.75 120.41538,0 l 903.60022,0 903.6002,0 5.3474,12.75 5.3474,12.75 2.7461,6.5 2.7461,6.5 27.6899,66 27.6899,66 24.4087,58.32758 24.4087,58.32757 0,0.42243 0,0.42242 H 1024 0 Z M 2013.0819,263.75 l -0.8686,-2.25 -18.5314,-45.5 -18.5314,-45.5 -27.0037,-66.5 -27.0037,-66.5 -3.9628,-10 -3.9628,-10 H 1024 134.78246 l -3.96278,10 -3.96278,10 L 99.853209,104 72.849518,170.5 54.318093,216 35.786668,261.5 34.918085,263.75 34.049502,266 1024,266 l 989.9505,0 z M 83.411897,232.49501 84.04693,229.96483 105.48312,175.73242 126.91931,121.5 l 15.30973,-39 15.30973,-39 33.23061,-0.263481 33.23062,-0.26348 0,0.774863 0,0.774862 -5.37093,14.988618 L 213.25813,74.5 212.56168,76.75 211.86522,79 222.93261,79 234,79 v 0.374273 0.374274 l -1.57604,4.375726 -1.57603,4.375727 -4.86904,13.75 -4.86904,13.75 h 22.91154 22.91154 l 5.90313,-18.25 5.90312,-18.25 11.41564,-0.279877 11.41564,-0.279878 5.91168,-17.970122 L 313.39382,43 h 33.41008 33.41008 l -0.61545,1.603843 -0.61546,1.603842 -3.42339,12.146158 -3.4234,12.146157 -14.4431,49.5 -14.44311,49.5 -9.24,32 -9.24,32 -0.6977,0.76267 -0.69771,0.76267 -36.05499,-0.26267 L 251.26468,234.5 264.0993,195 l 12.83461,-39.5 0.033,-0.25 L 277,155 h -11.41667 -11.41666 l -6.41611,19.25 -6.41611,19.25 -23.66723,0.2681 L 194,194.0362 v -1.453 -1.453 l 1.10077,-2.8151 1.10076,-2.8151 4.80128,-13.5 4.80127,-13.5 0.70495,-1.75 0.70495,-1.75 h -11.56587 -11.56586 l -1.79113,5.08646 -1.79112,5.08646 -12.52317,34.66354 -12.52318,34.66354 -36.33839,0.26259 -36.338397,0.26259 z M 348,234.55353 v -0.45777 l 9.40008,-33.29788 9.40008,-33.29788 11.16525,-39.5 11.16525,-39.5 5.97405,-21 5.97406,-21 0.528,-1.75 0.52801,-1.75 77.43261,0 77.43261,0 -0.061,2.25 -0.061,2.25 -3.25076,15.5 -3.25075,15.5 -45.12406,0.260146 -45.12407,0.260146 -0.55968,1.763418 -0.55969,1.763419 -13.5463,53.976431 -13.5463,53.97644 -0.52557,1.75 -0.52557,1.75 H 478.40761 525.95 l -0.57789,2.88945 -0.57789,2.88945 -3.65462,17.36055 -3.65461,17.36055 -84.7425,0.25565 L 348,235.01129 Z M 541.52845,231.75 542.14752,228.5 560.85014,136 579.55276,43.5 612.77638,43.236519 646,42.973039 v 1.863955 1.863955 L 643.50845,61.100475 641.01691,75.5 641.00845,77.25 641,79 h 11 11 v 0.613973 0.613972 L 660.50633,95.363973 658.01265,110.5 657.53133,113.25 657.05,116 h 22.76945 l 22.76945,0 2.27381,-16.75 2.2738,-16.75 0.48891,-1.717784 0.48891,-1.717783 11.15997,-0.282217 11.15998,-0.282216 2.21407,-16 2.21407,-16 0.0688,-1.75 L 735,43 h 33.5 33.5 v 0.558087 0.558086 L 792.5,139 783,233.88383 V 234.44191 235 H 746.5 710 v -0.58324 -0.58325 l 5,-37.9322 5,-37.93221 V 156.48455 155 h -11.29213 -11.29213 l -2.27825,17.25 -2.27825,17.25 -0.53803,2.25 -0.53803,2.25 h -23.97104 -23.97105 l 0.56281,-2.75 0.56282,-2.75 2.51664,-15.3522 L 650,157.7956 V 156.3978 155 l -11.25,0.001 -11.25,0.001 -5.35236,31.7488 -5.35236,31.7488 -1.50656,8.25 -1.50656,8.25 h -36.43639 -36.4364 z m 265.47252,0.0125 9.7e-4,-3.26247 7.95908,-87.5 7.95908,-87.5 0.61191,-5.25 0.6119,-5.25 77.36903,0 77.36903,0 0.47457,0.767869 0.47456,0.767869 -1.88455,90.482132 L 976.062,225.5 976.031,230.25 976,235 H 939.5 903 l 0.0174,-0.75 0.0174,-0.75 L 905,196 l 1.96525,-37.5 0.0174,-1.75 L 907,155 H 895.5 884 l -0.0754,4.25 -0.0754,4.25 -2.17462,35.5 -2.17461,35.5 -36.25,0.26247 -36.25,0.26248 z M 909.42082,106.25 910.0283,96.5 910.58922,87.75 911.15015,79 h -10.96153 -10.96153 l -0.5718,4.25 -0.57179,4.25 -0.66993,14.25 -0.66994,14.25 h 11.03486 11.03486 z m 91.00238,37.5 0.652,-91.25 0.5581,-4.763362 0.5581,-4.763361 33.1543,0.263361 L 1068.5,43.5 l 0.2731,17.75 0.273,17.75 h 11.3686 11.3685 l 0.7301,18.5 0.7302,18.5 h 11.0362 l 11.0362,0 -0.6754,-20.25 -0.6753,-20.25 -0.6397,-16.25 -0.6396,-16.25 33.1884,0 33.1885,0 0.427,1.25 0.4271,1.25 6.5489,93 6.5488,93 -0.01,1.75 -0.01,1.75 h -36.353 -36.3531 l -0.6613,-17.25 -0.6614,-17.25 -0.631,-13.25 -0.6311,-13.25 H 1105.8546 1094 l -0.01,-11.25 -0.01,-11.25 -0.6422,-8.25 -0.6422,-8.25 h -10.973 -10.9729 l 0.6923,48.25 0.6924,48.25 0.4962,1.75 0.4962,1.75 h -36.6817 -36.68177 z m 216.1494,87 -0.55,-4.25 -2.5624,-33 -2.5625,-33 -4.4462,-55 -4.4463,-55 -0,-3.75 -0,-3.75 h 77.4809 77.481 l 0.5329,2.25 0.5329,2.25 9.005,59.5 9.0049,59.5 4.9812,32.79191 4.9812,32.79191 V 233.54191 235 h -36.2964 -36.2965 l -3.8033,-31.75 -3.8033,-31.75 -1.0336,-8.25 -1.0335,-8.25 H 1292.3667 1281 v 0.37851 0.37851 l 3.9636,35.87149 3.9636,35.87149 0.5482,3.75 0.5482,3.75 h -36.4505 -36.4506 z m 82.1139,-118.5 -0.5691,-3.75 -1.7029,-14.75 L 1294.7116,79 H 1283.8558 1273 l -0.01,2.25 -0.01,2.25 1.5897,15 1.5897,15 0.3852,1.25 0.3852,1.25 h 11.1592 11.1592 z m 110.9022,120 -0.5702,-2.75 -11.5989,-72.5 -11.5989,-72.5 -3.2271,-20.266608 -3.2271,-20.266608 0.4834,-0.483392 L 1380.3333,43 h 77.2496 77.2496 l 4.0837,17.011437 L 1543,77.022875 V 78.011437 79 h -45.0191 -45.019 l 0.5107,2.25 0.5106,2.25 6.5518,34.5 6.5517,34.5 3.9567,20.17681 3.9566,20.17681 V 193.42681 194 h 11.5 11.5 v -0.78778 -0.78779 L 1490.5,155 1483,117.57557 V 116.78778 116 h 34.5 34.5 v 0.3556 0.35561 l 13.5,57.80726 13.5,57.80726 V 233.66286 235 h -84.4205 -84.4206 z m 193.057,1 -0.489,-1.75 -7.5418,-31.5 -7.5417,-31.5 -13.4857,-56 -13.4858,-56 -1.0875,-5 -1.0876,-5 -0.5307,-1.75 -0.5307,-1.75 h 77.8707 77.8706 l 5.539,17.75 5.539,17.75 -44.9195,0.260243 -44.9194,0.260244 0.6052,2.739756 0.6052,2.739757 4.2492,15.5 4.2492,15.5 45.988,0.25983 45.988,0.25983 5.7492,18.74017 5.7492,18.74017 -0.014,0.74011 -0.014,0.74011 -46.3316,0.25989 -46.3317,0.25989 4.302,15.5 4.3021,15.5 1.0697,3.75 1.0698,3.75 h 47.4168 47.4169 l 4.1005,13.25 4.1006,13.25 1.9424,5.94417 1.9425,5.94417 V 233.69417 235 h -84.4326 -84.4326 z m 186.8846,-19 -6.6476,-20.75 -4.8478,-15 -4.8477,-15 -19.0936,-59.54073 L 1735,44.41854 v -0.715402 -0.715402 l 77.7337,0.256132 77.7338,0.256132 14.1528,36 14.1528,36 -11.2986,0.5 -11.2985,0.5 3.5445,9.25 3.5444,9.25 11.6176,0.004 11.6175,0.004 6.1713,15.74597 6.1712,15.74597 12.6039,31.92614 12.6039,31.92613 0.5864,2.33646 0.5864,2.33645 -36.3384,-0.26259 L 1892.5463,234.5 1880.0232,199.83646 1867.5,165.17292 1865.7089,160.08646 1863.9178,155 h -11.5659 -11.5659 l 0.7098,1.75 0.7097,1.75 13.3973,37.82332 L 1869,234.14664 V 234.57332 235 h -36.411 -36.411 z M 1849,114.89944 v -1.10056 l -6.25,-17.387499 -6.25,-17.387496 -10.75,-0.01194 L 1815,79 v 1.342102 1.342102 l 6,16.815796 6,16.8158 V 115.6579 116 h 11 11 z"
       id="path1" />
  </g>
</svg>
